<?xml version="1.0" encoding="utf-8"?>
<!-- Generator: Adobe Illustrator 16.0.0, SVG Export Plug-In . SVG Version: 6.00 Build 0)  -->
<!DOCTYPE svg PUBLIC "-//W3C//DTD SVG 1.1//EN" "http://www.w3.org/Graphics/SVG/1.1/DTD/svg11.dtd">
<svg version="1.1" xmlns="http://www.w3.org/2000/svg" xmlns:xlink="http://www.w3.org/1999/xlink" x="0px" y="0px" width="1024px"
	 height="792px" viewBox="0 0 1024 792" enable-background="new 0 0 1024 792" xml:space="preserve">
<g id="Layer_2">
	<circle fill="#8D3935" cx="535.595" cy="384.797" r="309.594"/>
	<circle fill="#46433A" cx="535.493" cy="380.696" r="272.785"/>
</g>
<g id="paperback">
	
		<rect x="347.547" y="220.431" transform="matrix(1 0.0013 -0.0013 1 0.497 -0.6139)" fill="#171810" width="247.215" height="321.121"/>
	
		<rect x="353.053" y="216.431" transform="matrix(1 0.0013 -0.0013 1 0.4919 -0.6211)" fill="#DED4B9" width="247.215" height="321.121"/>
	<g>
		<g>
			<path fill="#46433A" d="M385.667,256.833c62.222,0,124.445,0,186.667,0c3.225,0,3.225-5,0-5c-62.222,0-124.445,0-186.667,0
				C382.443,251.833,382.443,256.833,385.667,256.833L385.667,256.833z"/>
		</g>
	</g>
	<g>
		<g>
			<path fill="#46433A" d="M385.667,282.833c62.222,0,124.445,0,186.667,0c3.225,0,3.225-5,0-5c-62.222,0-124.445,0-186.667,0
				C382.443,277.833,382.443,282.833,385.667,282.833L385.667,282.833z"/>
		</g>
	</g>
	<g>
		<g>
			<path fill="#46433A" d="M385.667,308.833c62.222,0,124.445,0,186.667,0c3.225,0,3.225-5,0-5c-62.222,0-124.445,0-186.667,0
				C382.443,303.833,382.443,308.833,385.667,308.833L385.667,308.833z"/>
		</g>
	</g>
	<g>
		<g>
			<path fill="#46433A" d="M385.667,336.833c62.222,0,124.445,0,186.667,0c3.225,0,3.225-5,0-5c-62.222,0-124.445,0-186.667,0
				C382.443,331.833,382.443,336.833,385.667,336.833L385.667,336.833z"/>
		</g>
	</g>
	<g>
		<g>
			<path fill="#46433A" d="M385.667,363.833c62.222,0,124.445,0,186.667,0c3.225,0,3.225-5,0-5c-62.222,0-124.445,0-186.667,0
				C382.443,358.833,382.443,363.833,385.667,363.833L385.667,363.833z"/>
		</g>
	</g>
	<g>
		<g>
			<path fill="#46433A" d="M385.667,393.833c42.111,0,84.222,0,126.333,0c3.225,0,3.225-5,0-5c-42.111,0-84.222,0-126.333,0
				C382.443,388.833,382.443,393.833,385.667,393.833L385.667,393.833z"/>
		</g>
	</g>
</g>
<g id="paperfront">
	
		<rect x="456.116" y="224.431" transform="matrix(0.9586 0.2848 -0.2848 0.9586 133.6417 -149.1515)" fill="#A3926A" width="247.214" height="321.121"/>
	
		<rect x="466.496" y="216.431" transform="matrix(0.9586 0.2848 -0.2848 0.9586 131.793 -152.4387)" fill="#DED4B9" width="247.215" height="321.121"/>
	<g>
		<g>
			<path fill="#46433A" d="M530.671,235.847c60.086,16.167,120.171,32.333,180.256,48.5c3.118,0.839,4.44-3.984,1.33-4.821
				c-60.086-16.167-120.171-32.333-180.256-48.5C528.883,230.187,527.561,235.01,530.671,235.847L530.671,235.847z"/>
		</g>
	</g>
	<g>
		<g>
			<path fill="#46433A" d="M523.916,260.954c60.086,16.167,120.172,32.334,180.258,48.5c3.118,0.839,4.44-3.984,1.33-4.821
				c-60.087-16.166-120.172-32.333-180.258-48.5C522.128,255.293,520.806,260.117,523.916,260.954L523.916,260.954z"/>
		</g>
	</g>
	<g>
		<g>
			<path fill="#46433A" d="M517.161,286.061c60.086,16.167,120.171,32.333,180.256,48.5c3.118,0.839,4.44-3.984,1.33-4.821
				c-60.086-16.167-120.171-32.333-180.256-48.5C515.373,280.4,514.051,285.224,517.161,286.061L517.161,286.061z"/>
		</g>
	</g>
	<g>
		<g>
			<path fill="#46433A" d="M509.887,313.099c60.085,16.167,120.17,32.333,180.255,48.5c3.118,0.839,4.44-3.984,1.33-4.821
				c-60.086-16.167-120.171-32.333-180.256-48.5C508.098,307.439,506.776,312.262,509.887,313.099L509.887,313.099z"/>
		</g>
	</g>
	<g>
		<g>
			<path fill="#46433A" d="M502.871,339.172c60.085,16.167,120.17,32.334,180.256,48.5c3.118,0.839,4.44-3.984,1.33-4.821
				c-60.086-16.166-120.172-32.333-180.257-48.5C501.082,333.512,499.76,338.335,502.871,339.172L502.871,339.172z"/>
		</g>
	</g>
	<g>
		<g>
			<path fill="#46433A" d="M495.076,368.142c40.665,10.941,81.33,21.882,121.994,32.825c3.118,0.839,4.44-3.985,1.33-4.822
				c-40.665-10.942-81.33-21.884-121.995-32.825C493.287,362.481,491.965,367.305,495.076,368.142L495.076,368.142z"/>
		</g>
	</g>
</g>
</svg>
